<mxfile host="app.diagrams.net" modified="2023-09-19T04:19:41.809Z" agent="Mozilla/5.0 (Windows NT 10.0; Win64; x64) AppleWebKit/537.36 (KHTML, like Gecko) Chrome/116.0.0.0 Safari/537.36" etag="yoaZM--i4-05OwGyFsI5" version="21.7.5" type="device">
  <diagram id="C5RBs43oDa-KdzZeNtuy" name="Page-1">
    <mxGraphModel dx="989" dy="523" grid="0" gridSize="10" guides="1" tooltips="1" connect="1" arrows="1" fold="1" page="1" pageScale="1" pageWidth="827" pageHeight="1169" math="0" shadow="0">
      <root>
        <mxCell id="WIyWlLk6GJQsqaUBKTNV-0" />
        <mxCell id="WIyWlLk6GJQsqaUBKTNV-1" parent="WIyWlLk6GJQsqaUBKTNV-0" />
        <mxCell id="p8BFKP465fhOb9F-RIUU-429" value="output" style="rounded=1;whiteSpace=wrap;html=1;fontSize=14;glass=0;strokeWidth=1;shadow=0;" vertex="1" parent="WIyWlLk6GJQsqaUBKTNV-1">
          <mxGeometry x="273.79310344827593" y="893.7241379310344" width="120" height="40" as="geometry" />
        </mxCell>
        <mxCell id="p8BFKP465fhOb9F-RIUU-430" value="Конец" style="rounded=1;whiteSpace=wrap;html=1;fontSize=12;glass=0;strokeWidth=1;shadow=0;" vertex="1" parent="WIyWlLk6GJQsqaUBKTNV-1">
          <mxGeometry x="273.79310344827593" y="1095.7241379310344" width="120" height="40" as="geometry" />
        </mxCell>
        <mxCell id="p8BFKP465fhOb9F-RIUU-431" value="Вход. пар-ры: TextBox^ t, double x&lt;br&gt;Возвр. знач.: поле Text TextBox&#39;a" style="text;html=1;strokeColor=none;fillColor=none;align=left;verticalAlign=middle;whiteSpace=wrap;rounded=0;" vertex="1" parent="WIyWlLk6GJQsqaUBKTNV-1">
          <mxGeometry x="463.79310344827593" y="898.7241379310344" width="192" height="30" as="geometry" />
        </mxCell>
        <mxCell id="p8BFKP465fhOb9F-RIUU-432" value="" style="endArrow=none;html=1;rounded=0;entryX=1;entryY=0.5;entryDx=0;entryDy=0;exitX=0;exitY=0.5;exitDx=0;exitDy=0;" edge="1" parent="WIyWlLk6GJQsqaUBKTNV-1" source="p8BFKP465fhOb9F-RIUU-431" target="p8BFKP465fhOb9F-RIUU-429">
          <mxGeometry width="50" height="50" relative="1" as="geometry">
            <mxPoint x="373.79310344827593" y="983.7241379310344" as="sourcePoint" />
            <mxPoint x="423.79310344827593" y="933.7241379310344" as="targetPoint" />
          </mxGeometry>
        </mxCell>
        <mxCell id="p8BFKP465fhOb9F-RIUU-433" value="" style="endArrow=none;html=1;rounded=0;" edge="1" parent="WIyWlLk6GJQsqaUBKTNV-1">
          <mxGeometry width="50" height="50" relative="1" as="geometry">
            <mxPoint x="463.79310344827593" y="893.7241379310344" as="sourcePoint" />
            <mxPoint x="463.79310344827593" y="913.7241379310344" as="targetPoint" />
          </mxGeometry>
        </mxCell>
        <mxCell id="p8BFKP465fhOb9F-RIUU-434" value="" style="endArrow=none;html=1;rounded=0;" edge="1" parent="WIyWlLk6GJQsqaUBKTNV-1">
          <mxGeometry width="50" height="50" relative="1" as="geometry">
            <mxPoint x="463.79310344827593" y="933.7241379310344" as="sourcePoint" />
            <mxPoint x="463.79310344827593" y="913.7241379310344" as="targetPoint" />
          </mxGeometry>
        </mxCell>
        <mxCell id="p8BFKP465fhOb9F-RIUU-435" value="" style="endArrow=none;html=1;rounded=0;" edge="1" parent="WIyWlLk6GJQsqaUBKTNV-1">
          <mxGeometry width="50" height="50" relative="1" as="geometry">
            <mxPoint x="463.79310344827593" y="933.7241379310344" as="sourcePoint" />
            <mxPoint x="503.79310344827593" y="933.7241379310344" as="targetPoint" />
          </mxGeometry>
        </mxCell>
        <mxCell id="p8BFKP465fhOb9F-RIUU-436" value="" style="endArrow=none;html=1;rounded=0;" edge="1" parent="WIyWlLk6GJQsqaUBKTNV-1">
          <mxGeometry width="50" height="50" relative="1" as="geometry">
            <mxPoint x="463.79310344827593" y="893.7241379310344" as="sourcePoint" />
            <mxPoint x="503.79310344827593" y="893.7241379310344" as="targetPoint" />
          </mxGeometry>
        </mxCell>
        <mxCell id="p8BFKP465fhOb9F-RIUU-437" value="" style="endArrow=none;html=1;rounded=0;entryX=0.5;entryY=1;entryDx=0;entryDy=0;exitX=0.5;exitY=0;exitDx=0;exitDy=0;" edge="1" parent="WIyWlLk6GJQsqaUBKTNV-1" source="p8BFKP465fhOb9F-RIUU-430" target="p8BFKP465fhOb9F-RIUU-439">
          <mxGeometry width="50" height="50" relative="1" as="geometry">
            <mxPoint x="333.79310344827593" y="1173.7241379310344" as="sourcePoint" />
            <mxPoint x="331.79310344827593" y="1078.7241379310344" as="targetPoint" />
          </mxGeometry>
        </mxCell>
        <mxCell id="p8BFKP465fhOb9F-RIUU-438" value="" style="endArrow=none;html=1;rounded=0;exitX=0.5;exitY=1;exitDx=0;exitDy=0;entryX=0.5;entryY=0;entryDx=0;entryDy=0;" edge="1" parent="WIyWlLk6GJQsqaUBKTNV-1" source="p8BFKP465fhOb9F-RIUU-429">
          <mxGeometry width="50" height="50" relative="1" as="geometry">
            <mxPoint x="501.79310344827593" y="1208.7241379310344" as="sourcePoint" />
            <mxPoint x="333.79310344827593" y="983.7241379310344" as="targetPoint" />
          </mxGeometry>
        </mxCell>
        <mxCell id="p8BFKP465fhOb9F-RIUU-439" value="t-&amp;gt;Text = Convert::&lt;br&gt;ToString(x)" style="rounded=0;whiteSpace=wrap;html=1;" vertex="1" parent="WIyWlLk6GJQsqaUBKTNV-1">
          <mxGeometry x="273.79310344827593" y="979.7241379310344" width="120" height="60" as="geometry" />
        </mxCell>
      </root>
    </mxGraphModel>
  </diagram>
</mxfile>
